<svg width="235" height="34" viewBox="0 0 235 34" fill="none" xmlns="http://www.w3.org/2000/svg">
<path d="M12.304 13.576C13.4987 13.7893 14.512 14.4187 15.344 15.464C16.176 16.5093 16.592 17.6933 16.592 19.016C16.592 20.1467 16.2933 21.1707 15.696 22.088C15.12 22.984 14.2773 23.6987 13.168 24.232C12.0587 24.744 10.768 25 9.296 25H0.4V2.76H8.88C10.3947 2.76 11.696 3.016 12.784 3.528C13.872 4.04 14.6933 4.73333 15.248 5.608C15.8027 6.46133 16.08 7.42133 16.08 8.488C16.08 9.768 15.7387 10.8347 15.056 11.688C14.3733 12.5413 13.456 13.1707 12.304 13.576ZM4.048 12.104H8.56C9.75467 12.104 10.6827 11.8373 11.344 11.304C12.0267 10.7493 12.368 9.96 12.368 8.936C12.368 7.93333 12.0267 7.15467 11.344 6.6C10.6827 6.024 9.75467 5.736 8.56 5.736H4.048V12.104ZM8.976 22.024C10.2133 22.024 11.184 21.7253 11.888 21.128C12.592 20.5307 12.944 19.6987 12.944 18.632C12.944 17.544 12.5707 16.68 11.824 16.04C11.0773 15.4 10.0853 15.08 8.848 15.08H4.048V22.024H8.976Z" fill="#FF0000"/>
<path d="M36.5243 7.368V25H32.8763V22.92C32.3003 23.6453 31.5429 24.2213 30.6043 24.648C29.6869 25.0533 28.7056 25.256 27.6603 25.256C26.2736 25.256 25.0256 24.968 23.9163 24.392C22.8283 23.816 21.9643 22.9627 21.3243 21.832C20.7056 20.7013 20.3963 19.336 20.3963 17.736V7.368H24.0123V17.192C24.0123 18.7707 24.4069 19.9867 25.1963 20.84C25.9856 21.672 27.0629 22.088 28.4283 22.088C29.7936 22.088 30.8709 21.672 31.6603 20.84C32.4709 19.9867 32.8763 18.7707 32.8763 17.192V7.368H36.5243ZM44.5695 22.024H52.5695V25H40.3455V22.024L48.3775 10.344H40.3455V7.368H52.5695V10.344L44.5695 22.024ZM59.632 22.024H67.632V25H55.408V22.024L63.44 10.344H55.408V7.368H67.632V10.344L59.632 22.024ZM78.2785 21.736L83.2705 7.368H87.1425L80.4225 25H76.0705L69.3825 7.368H73.2865L78.2785 21.736ZM106.06 15.752C106.06 16.4133 106.017 17.0107 105.932 17.544H92.46C92.5667 18.952 93.0893 20.0827 94.028 20.936C94.9667 21.7893 96.1187 22.216 97.484 22.216C99.4467 22.216 100.833 21.3947 101.644 19.752H105.58C105.047 21.3733 104.076 22.7067 102.668 23.752C101.281 24.776 99.5533 25.288 97.484 25.288C95.7987 25.288 94.284 24.9147 92.94 24.168C91.6173 23.4 90.572 22.3333 89.804 20.968C89.0573 19.5813 88.684 17.9813 88.684 16.168C88.684 14.3547 89.0467 12.7653 89.772 11.4C90.5187 10.0133 91.5533 8.94667 92.876 8.2C94.22 7.45333 95.756 7.08 97.484 7.08C99.148 7.08 100.631 7.44267 101.932 8.168C103.233 8.89333 104.247 9.91733 104.972 11.24C105.697 12.5413 106.06 14.0453 106.06 15.752ZM102.252 14.6C102.231 13.256 101.751 12.1787 100.812 11.368C99.8733 10.5573 98.7107 10.152 97.324 10.152C96.0653 10.152 94.988 10.5573 94.092 11.368C93.196 12.1573 92.6627 13.2347 92.492 14.6H102.252ZM113.298 1.32V25H109.65V1.32H113.298Z" fill="white"/>
<path d="M141.952 9.384C141.952 10.5147 141.685 11.5813 141.152 12.584C140.619 13.5867 139.765 14.408 138.592 15.048C137.419 15.6667 135.915 15.976 134.08 15.976H130.048V25H126.4V2.76H134.08C135.787 2.76 137.227 3.05866 138.4 3.656C139.595 4.232 140.48 5.02133 141.056 6.024C141.653 7.02667 141.952 8.14667 141.952 9.384ZM134.08 13C135.467 13 136.501 12.6907 137.184 12.072C137.867 11.432 138.208 10.536 138.208 9.384C138.208 6.952 136.832 5.736 134.08 5.736H130.048V13H134.08ZM149.079 9.928C149.613 9.032 150.317 8.33867 151.191 7.848C152.087 7.336 153.143 7.08 154.359 7.08V10.856H153.431C152.002 10.856 150.914 11.2187 150.167 11.944C149.442 12.6693 149.079 13.928 149.079 15.72V25H145.431V7.368H149.079V9.928ZM165.361 25.288C163.697 25.288 162.193 24.9147 160.849 24.168C159.505 23.4 158.449 22.3333 157.681 20.968C156.913 19.5813 156.529 17.9813 156.529 16.168C156.529 14.376 156.923 12.7867 157.713 11.4C158.502 10.0133 159.579 8.94667 160.945 8.2C162.31 7.45333 163.835 7.08 165.521 7.08C167.206 7.08 168.731 7.45333 170.097 8.2C171.462 8.94667 172.539 10.0133 173.329 11.4C174.118 12.7867 174.513 14.376 174.513 16.168C174.513 17.96 174.107 19.5493 173.297 20.936C172.486 22.3227 171.377 23.4 169.969 24.168C168.582 24.9147 167.046 25.288 165.361 25.288ZM165.361 22.12C166.299 22.12 167.174 21.896 167.985 21.448C168.817 21 169.489 20.328 170.001 19.432C170.513 18.536 170.769 17.448 170.769 16.168C170.769 14.888 170.523 13.8107 170.033 12.936C169.542 12.04 168.891 11.368 168.081 10.92C167.27 10.472 166.395 10.248 165.457 10.248C164.518 10.248 163.643 10.472 162.833 10.92C162.043 11.368 161.414 12.04 160.945 12.936C160.475 13.8107 160.241 14.888 160.241 16.168C160.241 18.0667 160.721 19.5387 161.681 20.584C162.662 21.608 163.889 22.12 165.361 22.12ZM179.975 5.032C179.313 5.032 178.759 4.808 178.311 4.36C177.863 3.912 177.639 3.35733 177.639 2.696C177.639 2.03467 177.863 1.48 178.311 1.032C178.759 0.583999 179.313 0.359999 179.975 0.359999C180.615 0.359999 181.159 0.583999 181.607 1.032C182.055 1.48 182.279 2.03467 182.279 2.696C182.279 3.35733 182.055 3.912 181.607 4.36C181.159 4.808 180.615 5.032 179.975 5.032ZM181.767 28.456C181.767 30.184 181.329 31.432 180.455 32.2C179.601 32.9893 178.353 33.384 176.711 33.384H174.823V30.312H176.071C176.817 30.312 177.34 30.1627 177.639 29.864C177.959 29.5867 178.119 29.1173 178.119 28.456V7.368H181.767V28.456ZM202.716 15.752C202.716 16.4133 202.674 17.0107 202.588 17.544H189.116C189.223 18.952 189.746 20.0827 190.684 20.936C191.623 21.7893 192.775 22.216 194.14 22.216C196.103 22.216 197.49 21.3947 198.3 19.752H202.236C201.703 21.3733 200.732 22.7067 199.324 23.752C197.938 24.776 196.21 25.288 194.14 25.288C192.455 25.288 190.94 24.9147 189.596 24.168C188.274 23.4 187.228 22.3333 186.46 20.968C185.714 19.5813 185.34 17.9813 185.34 16.168C185.34 14.3547 185.703 12.7653 186.428 11.4C187.175 10.0133 188.21 8.94667 189.532 8.2C190.876 7.45333 192.412 7.08 194.14 7.08C195.804 7.08 197.287 7.44267 198.588 8.168C199.89 8.89333 200.903 9.91733 201.628 11.24C202.354 12.5413 202.716 14.0453 202.716 15.752ZM198.908 14.6C198.887 13.256 198.407 12.1787 197.468 11.368C196.53 10.5573 195.367 10.152 193.98 10.152C192.722 10.152 191.644 10.5573 190.748 11.368C189.852 12.1573 189.319 13.2347 189.148 14.6H198.908ZM205.09 16.168C205.09 14.3547 205.453 12.7653 206.178 11.4C206.925 10.0133 207.949 8.94667 209.25 8.2C210.552 7.45333 212.045 7.08 213.73 7.08C215.864 7.08 217.624 7.592 219.01 8.616C220.418 9.61867 221.368 11.0587 221.858 12.936H217.922C217.602 12.0613 217.09 11.3787 216.386 10.888C215.682 10.3973 214.797 10.152 213.73 10.152C212.237 10.152 211.042 10.6853 210.146 11.752C209.272 12.7973 208.834 14.2693 208.834 16.168C208.834 18.0667 209.272 19.5493 210.146 20.616C211.042 21.6827 212.237 22.216 213.73 22.216C215.842 22.216 217.24 21.288 217.922 19.432H221.858C221.346 21.224 220.386 22.6533 218.978 23.72C217.57 24.7653 215.821 25.288 213.73 25.288C212.045 25.288 210.552 24.9147 209.25 24.168C207.949 23.4 206.925 22.3333 206.178 20.968C205.453 19.5813 205.09 17.9813 205.09 16.168ZM229.75 10.344V20.104C229.75 20.7653 229.899 21.2453 230.198 21.544C230.518 21.8213 231.051 21.96 231.798 21.96H234.038V25H231.158C229.515 25 228.256 24.616 227.382 23.848C226.507 23.08 226.07 21.832 226.07 20.104V10.344H223.99V7.368H226.07V2.984H229.75V7.368H234.038V10.344H229.75Z" fill="#9B9BA6"/>
</svg>
